<svg xmlns="http://www.w3.org/2000/svg" viewBox="0 0 37 16"><title>icon_lc-</title><g id="Layer_2" data-name="Layer 2"><g id="Layer_1-2" data-name="Layer 1"><path d="M35,0H2A1.985,1.985,0,0,0,.01,2L0,14a1.993,1.993,0,0,0,2,2H35a1.993,1.993,0,0,0,2-2V2A1.993,1.993,0,0,0,35,0Z" style="fill:olive"/><path d="M5.38,6.1v4.7H7.26v1.328H3.812V6.1Z" style="fill:#fff"/><path d="M12.284,8.117a1.672,1.672,0,0,0-1.344-.664,1.634,1.634,0,0,0-.652.128,1.558,1.558,0,0,0-.856.872,1.709,1.709,0,0,0-.124.655,1.733,1.733,0,0,0,.124.664,1.595,1.595,0,0,0,.86.88,1.585,1.585,0,0,0,.64.129,1.816,1.816,0,0,0,1.352-.641V12l-.16.056a4.677,4.677,0,0,1-.672.188,3.255,3.255,0,0,1-.616.06,3.15,3.15,0,0,1-2.2-.9,3.3,3.3,0,0,1-.7-1.016,3.254,3.254,0,0,1,0-2.56,3.187,3.187,0,0,1,2.916-1.893,3.3,3.3,0,0,1,.708.076,4.325,4.325,0,0,1,.732.236Z" style="fill:#fff"/><path d="M12.644,9.388h2.3V10.6h-2.3Z" style="fill:#fff"/><path d="M15.3,12.132,16.324,6.1h1.552l1.208,3.216,1.2-3.216h1.553l1.023,6.032H21.3L20.78,8.661l-1.424,3.472h-.624L17.38,8.661l-.52,3.472Z" style="fill:#fff"/><path d="M27.165,7.644a1.93,1.93,0,0,0-.513-.308,1.363,1.363,0,0,0-.5-.1.805.805,0,0,0-.5.145.447.447,0,0,0-.192.376.376.376,0,0,0,.1.264.852.852,0,0,0,.252.181,2.143,2.143,0,0,0,.353.132c.131.037.26.077.388.12a2.424,2.424,0,0,1,1.124.684,1.688,1.688,0,0,1,.356,1.116,2.181,2.181,0,0,1-.156.84,1.745,1.745,0,0,1-.456.644,2.088,2.088,0,0,1-.736.416,3.062,3.062,0,0,1-.987.148,3.632,3.632,0,0,1-2.12-.68l.672-1.265a2.743,2.743,0,0,0,.7.465,1.686,1.686,0,0,0,.681.151A.814.814,0,0,0,26.2,10.8a.546.546,0,0,0,.14-.636.519.519,0,0,0-.16-.185,1.3,1.3,0,0,0-.292-.155c-.12-.049-.266-.1-.436-.16-.2-.064-.4-.135-.6-.212a1.891,1.891,0,0,1-.52-.309,1.42,1.42,0,0,1-.368-.483,1.708,1.708,0,0,1-.14-.74,2.142,2.142,0,0,1,.147-.812,1.813,1.813,0,0,1,.416-.624,1.856,1.856,0,0,1,.656-.4,2.464,2.464,0,0,1,.868-.145,3.831,3.831,0,0,1,.936.124,4.147,4.147,0,0,1,.937.364Z" style="fill:#fff"/><path d="M28.965,5.388h4.28V6.6h-4.28Z" style="fill:#fff"/></g></g></svg>