<?xml version="1.0" encoding="utf-8"?>
<!-- Generator: Adobe Illustrator 20.0.0, SVG Export Plug-In . SVG Version: 6.00 Build 0)  -->
<svg version="1.1" id="Layer_1" xmlns="http://www.w3.org/2000/svg" xmlns:xlink="http://www.w3.org/1999/xlink" x="0px" y="0px"
	 viewBox="0 0 20 16" style="enable-background:new 0 0 20 16;" xml:space="preserve">
<g>
	<path style="fill:#808000;" d="M18,0H2C0.89,0,0.01,0.89,0.01,2L0,14c0,1.11,0.89,2,2,2h16c1.11,0,2-0.89,2-2V2
		C20,0.89,19.11,0,18,0z"/>
	<g>
		<path style="fill:#FFFFFF;" d="M4.852,5.099v4.704h1.88v1.328H3.283V5.099H4.852z"/>
		<path style="fill:#FFFFFF;" d="M12.556,7.116c-0.363-0.443-0.811-0.664-1.344-0.664c-0.234,0-0.452,0.042-0.652,0.128
			c-0.2,0.085-0.372,0.201-0.516,0.348s-0.257,0.321-0.34,0.524C9.621,7.654,9.58,7.873,9.58,8.107c0,0.24,0.041,0.462,0.124,0.664
			C9.786,8.974,9.901,9.15,10.048,9.3c0.147,0.149,0.319,0.267,0.516,0.352c0.197,0.086,0.411,0.129,0.64,0.129
			c0.501,0,0.952-0.214,1.352-0.641v1.856l-0.16,0.056c-0.24,0.085-0.464,0.148-0.672,0.188s-0.414,0.06-0.616,0.06
			c-0.416,0-0.814-0.079-1.196-0.236s-0.717-0.378-1.008-0.664c-0.291-0.285-0.524-0.624-0.7-1.016S7.94,8.563,7.94,8.099
			S8.027,7.211,8.2,6.824s0.405-0.721,0.696-1c0.291-0.28,0.628-0.499,1.012-0.656c0.384-0.157,0.787-0.236,1.208-0.236
			c0.24,0,0.476,0.025,0.708,0.076s0.476,0.13,0.732,0.236V7.116z"/>
		<path style="fill:#FFFFFF;" d="M14.051,4.868h2.495v0.704h-2.495V4.868z"/>
	</g>
</g>
</svg>
