<?xml version="1.0" encoding="utf-8"?>
<!-- Generator: Adobe Illustrator 20.0.0, SVG Export Plug-In . SVG Version: 6.00 Build 0)  -->
<svg version="1.1" id="Layer_1" xmlns="http://www.w3.org/2000/svg" xmlns:xlink="http://www.w3.org/1999/xlink" x="0px" y="0px"
	 viewBox="0 0 20 16" style="enable-background:new 0 0 20 16;" xml:space="preserve">
<g>
	<path style="fill:#008080;" d="M18,0H2C0.89,0,0.01,0.89,0.01,2L0,14c0,1.11,0.89,2,2,2h16c1.11,0,2-0.89,2-2V2
		C20,0.89,19.11,0,18,0z"/>
	<g>
		<path style="fill:#FFFFFF;" d="M6.58,7.756h3.112c0,0.32-0.014,0.61-0.04,0.872c-0.027,0.262-0.08,0.504-0.16,0.728
			C9.38,9.671,9.228,9.949,9.036,10.192C8.844,10.435,8.619,10.638,8.36,10.8c-0.259,0.163-0.543,0.287-0.852,0.372
			C7.199,11.257,6.873,11.3,6.532,11.3c-0.469,0-0.897-0.077-1.284-0.232c-0.387-0.154-0.719-0.371-0.996-0.651
			C3.974,10.136,3.759,9.8,3.604,9.408C3.449,9.016,3.372,8.583,3.372,8.108c0-0.469,0.076-0.899,0.228-1.292
			c0.152-0.392,0.368-0.727,0.648-1.004c0.28-0.277,0.617-0.493,1.012-0.647c0.395-0.155,0.834-0.232,1.32-0.232
			c0.629,0,1.181,0.136,1.656,0.408c0.475,0.272,0.851,0.693,1.128,1.264L7.876,7.22c-0.139-0.33-0.318-0.568-0.54-0.712
			C7.115,6.365,6.863,6.292,6.58,6.292c-0.235,0-0.448,0.044-0.64,0.132C5.748,6.512,5.584,6.638,5.448,6.8
			c-0.136,0.163-0.243,0.358-0.32,0.588C5.051,7.617,5.012,7.873,5.012,8.157c0,0.256,0.033,0.493,0.1,0.712
			c0.066,0.219,0.167,0.407,0.3,0.567S5.711,9.72,5.908,9.808S6.335,9.94,6.596,9.94c0.155,0,0.304-0.017,0.448-0.052
			C7.188,9.854,7.317,9.797,7.432,9.72s0.209-0.177,0.284-0.3s0.125-0.272,0.152-0.448H6.58V7.756z"/>
		<path style="fill:#FFFFFF;" d="M15.828,7.116c-0.363-0.443-0.811-0.664-1.344-0.664c-0.234,0-0.452,0.042-0.652,0.128
			c-0.2,0.085-0.372,0.201-0.516,0.348s-0.257,0.321-0.34,0.524c-0.083,0.202-0.124,0.421-0.124,0.655
			c0,0.24,0.041,0.462,0.124,0.664c0.083,0.203,0.197,0.379,0.344,0.528c0.147,0.149,0.319,0.267,0.516,0.352
			c0.197,0.086,0.411,0.129,0.64,0.129c0.501,0,0.952-0.214,1.352-0.641v1.856l-0.16,0.056c-0.24,0.085-0.464,0.148-0.672,0.188
			s-0.414,0.06-0.616,0.06c-0.416,0-0.814-0.079-1.196-0.236s-0.717-0.378-1.008-0.664c-0.291-0.285-0.524-0.624-0.7-1.016
			s-0.264-0.82-0.264-1.284c0-0.464,0.087-0.889,0.26-1.275s0.405-0.721,0.696-1c0.291-0.28,0.628-0.499,1.012-0.656
			c0.384-0.157,0.787-0.236,1.208-0.236c0.24,0,0.476,0.025,0.708,0.076s0.476,0.13,0.732,0.236V7.116z"/>
	</g>
</g>
</svg>
