<svg xmlns="http://www.w3.org/2000/svg" viewBox="0 0 37 16"><title>icon_lcmsms-</title><g id="Layer_2" data-name="Layer 2"><g id="Layer_1-2" data-name="Layer 1"><path d="M35,0H2A1.985,1.985,0,0,0,.01,2L0,14a1.993,1.993,0,0,0,2,2H35a1.993,1.993,0,0,0,2-2V2A1.993,1.993,0,0,0,35,0Z" style="fill:#3d9941"/><path d="M2.661,6.1v4.7h1.88v1.328H1.092V6.1Z" style="fill:#fff"/><path d="M9.565,8.117A1.674,1.674,0,0,0,8.22,7.453a1.632,1.632,0,0,0-.651.128,1.589,1.589,0,0,0-.517.348,1.61,1.61,0,0,0-.34.524,1.709,1.709,0,0,0-.124.655,1.733,1.733,0,0,0,.124.664,1.594,1.594,0,0,0,.86.88,1.583,1.583,0,0,0,.64.129,1.817,1.817,0,0,0,1.353-.641V12l-.16.056a4.7,4.7,0,0,1-.672.188,3.259,3.259,0,0,1-.616.06,3.15,3.15,0,0,1-2.2-.9,3.3,3.3,0,0,1-.7-1.016,3.26,3.26,0,0,1,0-2.56A3.187,3.187,0,0,1,8.125,5.932a3.3,3.3,0,0,1,.708.076,4.315,4.315,0,0,1,.732.236Z" style="fill:#fff"/><path d="M9.924,9.388h2.3V10.6h-2.3Z" style="fill:#fff"/><path d="M12.581,12.132,13.6,6.1h1.553l1.208,3.216,1.2-3.216h1.552l1.023,6.032h-1.56L18.06,8.661l-1.424,3.472h-.624L14.661,8.661l-.521,3.472Z" style="fill:#fff"/><path d="M24.445,7.644a1.93,1.93,0,0,0-.513-.308,1.363,1.363,0,0,0-.5-.1.805.805,0,0,0-.5.145.447.447,0,0,0-.192.376.376.376,0,0,0,.1.264A.852.852,0,0,0,23.1,8.2a2.143,2.143,0,0,0,.353.132c.131.037.26.077.388.12a2.424,2.424,0,0,1,1.124.684,1.688,1.688,0,0,1,.356,1.116,2.181,2.181,0,0,1-.156.84,1.745,1.745,0,0,1-.456.644,2.088,2.088,0,0,1-.736.416,3.062,3.062,0,0,1-.987.148,3.632,3.632,0,0,1-2.12-.68l.672-1.265a2.743,2.743,0,0,0,.7.465,1.686,1.686,0,0,0,.681.151.814.814,0,0,0,.572-.176.546.546,0,0,0,.14-.636.519.519,0,0,0-.16-.185,1.3,1.3,0,0,0-.292-.155c-.12-.049-.266-.1-.436-.16-.2-.064-.4-.135-.6-.212a1.891,1.891,0,0,1-.52-.309,1.42,1.42,0,0,1-.368-.483,1.708,1.708,0,0,1-.14-.74,2.142,2.142,0,0,1,.147-.812,1.813,1.813,0,0,1,.416-.624,1.856,1.856,0,0,1,.656-.4,2.464,2.464,0,0,1,.868-.145,3.831,3.831,0,0,1,.936.124,4.147,4.147,0,0,1,.937.364Z" style="fill:#fff"/><path d="M30.749,12.132H25.892l1.5-1.552q.592-.617.929-1.044a5.783,5.783,0,0,0,.5-.725,1.924,1.924,0,0,0,.2-.479,1.467,1.467,0,0,0,.04-.312.807.807,0,0,0-.044-.264.672.672,0,0,0-.132-.228.651.651,0,0,0-.212-.16.663.663,0,0,0-.292-.061.627.627,0,0,0-.5.208.767.767,0,0,0-.18.521,2.013,2.013,0,0,0,.023.256H26.012a2.581,2.581,0,0,1,.172-.96,2.186,2.186,0,0,1,.484-.744,2.146,2.146,0,0,1,.74-.48,2.563,2.563,0,0,1,.939-.168,2.653,2.653,0,0,1,.933.16,2.232,2.232,0,0,1,.739.448,2.061,2.061,0,0,1,.488.684,2.1,2.1,0,0,1,.176.86,2,2,0,0,1-.212.916,3.21,3.21,0,0,1-.676.86l-1,.936h1.952Z" style="fill:#fff"/><path d="M31.684,5.388h4.28V6.6h-4.28Z" style="fill:#fff"/></g></g></svg>