<?xml version="1.0" encoding="utf-8"?>
<!-- Generator: Adobe Illustrator 20.0.0, SVG Export Plug-In . SVG Version: 6.00 Build 0)  -->
<svg version="1.1" id="Layer_1" xmlns="http://www.w3.org/2000/svg" xmlns:xlink="http://www.w3.org/1999/xlink" x="0px" y="0px"
	 viewBox="0 0 20 16.048" style="enable-background:new 0 0 20 16.048;" xml:space="preserve">
<g>
	<path style="fill:#000080;" d="M18,0.048H2c-1.11,0-1.99,0.89-1.99,2l-0.01,12c0,1.11,0.89,2,2,2h16c1.11,0,2-0.89,2-2v-12
		C20,0.938,19.11,0.048,18,0.048z"/>
	<g>
		<path style="fill:#FFFFFF;" d="M4.849,5.148v4.704h1.88v1.328H3.281V5.148H4.849z"/>
		<path style="fill:#FFFFFF;" d="M12.553,7.165C12.191,6.721,11.743,6.5,11.209,6.5c-0.234,0-0.452,0.042-0.652,0.128
			c-0.2,0.085-0.372,0.201-0.516,0.348C9.897,7.123,9.784,7.297,9.702,7.5C9.619,7.703,9.578,7.921,9.578,8.156
			c0,0.24,0.041,0.462,0.124,0.664c0.082,0.203,0.197,0.379,0.344,0.528s0.318,0.267,0.516,0.352
			c0.197,0.086,0.411,0.129,0.641,0.129c0.501,0,0.952-0.214,1.352-0.641v1.856l-0.16,0.056c-0.239,0.085-0.464,0.148-0.672,0.188
			s-0.413,0.06-0.616,0.06c-0.416,0-0.814-0.079-1.195-0.236c-0.382-0.157-0.718-0.378-1.008-0.664
			c-0.291-0.285-0.524-0.624-0.7-1.016s-0.265-0.82-0.265-1.284s0.087-0.889,0.261-1.275c0.173-0.387,0.405-0.721,0.695-1
			c0.291-0.28,0.628-0.499,1.013-0.656c0.384-0.157,0.786-0.236,1.208-0.236c0.239,0,0.476,0.025,0.708,0.076
			c0.231,0.051,0.476,0.13,0.731,0.236V7.165z"/>
		<path style="fill:#FFFFFF;" d="M14.049,4.959H15V4.007h0.597v0.952h0.947v0.597h-0.947v0.951H15V5.556h-0.951V4.959z"/>
	</g>
</g>
</svg>
