<svg xmlns="http://www.w3.org/2000/svg" viewBox="0 0 37 16"><title>icon_gc</title><g id="Layer_2" data-name="Layer 2"><g id="Layer_1-2" data-name="Layer 1"><path d="M35,0H2A1.985,1.985,0,0,0,.01,2L0,14a1.993,1.993,0,0,0,2,2H35a1.993,1.993,0,0,0,2-2V2A1.993,1.993,0,0,0,35,0Z" style="fill:teal"/><path d="M8.008,7.756H11.12a8.47,8.47,0,0,1-.039.872,3.123,3.123,0,0,1-.16.728,2.9,2.9,0,0,1-.455.836,2.677,2.677,0,0,1-.678.608,3.152,3.152,0,0,1-.852.372,3.647,3.647,0,0,1-.977.128,3.424,3.424,0,0,1-1.283-.232,2.9,2.9,0,0,1-1-.652,2.951,2.951,0,0,1-.648-1.008,3.51,3.51,0,0,1-.232-1.3,3.549,3.549,0,0,1,.228-1.292,2.842,2.842,0,0,1,.648-1,2.939,2.939,0,0,1,1.012-.648,3.59,3.59,0,0,1,1.32-.232,3.275,3.275,0,0,1,1.656.408A2.823,2.823,0,0,1,10.791,6.6L9.305,7.22a1.519,1.519,0,0,0-.541-.712,1.352,1.352,0,0,0-.756-.216,1.52,1.52,0,0,0-.64.132,1.382,1.382,0,0,0-.492.376,1.8,1.8,0,0,0-.32.588,2.386,2.386,0,0,0-.116.768,2.422,2.422,0,0,0,.1.712,1.606,1.606,0,0,0,.3.568,1.355,1.355,0,0,0,.5.372,1.665,1.665,0,0,0,.687.132,1.923,1.923,0,0,0,.449-.052A1.169,1.169,0,0,0,8.86,9.72a.969.969,0,0,0,.285-.3A1.219,1.219,0,0,0,9.3,8.972H8.008Z" style="fill:#fff"/><path d="M16.455,7.116a1.673,1.673,0,0,0-1.344-.664,1.637,1.637,0,0,0-.651.128,1.589,1.589,0,0,0-.517.348,1.618,1.618,0,0,0-.34.524,1.716,1.716,0,0,0-.124.656,1.736,1.736,0,0,0,.124.664,1.6,1.6,0,0,0,.86.88,1.591,1.591,0,0,0,.64.128,1.814,1.814,0,0,0,1.352-.64V11l-.159.056a4.636,4.636,0,0,1-.673.188,3.25,3.25,0,0,1-.615.06,3.147,3.147,0,0,1-2.2-.9,3.291,3.291,0,0,1-.7-1.016,3.261,3.261,0,0,1,0-2.56,3.188,3.188,0,0,1,2.916-1.892,3.3,3.3,0,0,1,.708.076,4.33,4.33,0,0,1,.731.236Z" style="fill:#fff"/><path d="M16.816,8.388h2.3V9.6h-2.3Z" style="fill:#fff"/><path d="M19.472,11.132,20.5,5.1h1.552l1.208,3.216,1.2-3.216h1.553l1.023,6.032h-1.56L24.952,7.66l-1.424,3.472H22.9L21.552,7.66l-.521,3.472Z" style="fill:#fff"/><path d="M31.336,6.645a1.933,1.933,0,0,0-.513-.308,1.352,1.352,0,0,0-.5-.1.8.8,0,0,0-.5.144.447.447,0,0,0-.192.376.376.376,0,0,0,.1.264.841.841,0,0,0,.252.18,2.188,2.188,0,0,0,.353.132c.131.037.26.077.388.12a2.424,2.424,0,0,1,1.124.684,1.688,1.688,0,0,1,.356,1.116,2.181,2.181,0,0,1-.156.84,1.754,1.754,0,0,1-.456.644,2.1,2.1,0,0,1-.736.416,3.063,3.063,0,0,1-.987.148,3.629,3.629,0,0,1-2.12-.68l.672-1.264a2.724,2.724,0,0,0,.7.464,1.67,1.67,0,0,0,.681.152.814.814,0,0,0,.572-.176.547.547,0,0,0,.14-.636.517.517,0,0,0-.16-.184,1.279,1.279,0,0,0-.292-.156q-.18-.072-.436-.16c-.2-.064-.4-.134-.6-.212a1.854,1.854,0,0,1-.52-.308,1.418,1.418,0,0,1-.368-.484,1.7,1.7,0,0,1-.14-.74,2.138,2.138,0,0,1,.147-.812,1.8,1.8,0,0,1,.416-.624,1.858,1.858,0,0,1,.656-.4,2.487,2.487,0,0,1,.868-.144,3.807,3.807,0,0,1,.936.124,4.147,4.147,0,0,1,.937.364Z" style="fill:#fff"/></g></g></svg>